<!DOCTYPE svg PUBLIC "-//W3C//DTD SVG 1.1//EN" "http://www.w3.org/Graphics/SVG/1.1/DTD/svg11.dtd">
<!-- Uploaded to: SVG Repo, www.svgrepo.com, Transformed by: SVG Repo Mixer Tools -->
<svg height="800px" width="800px" version="1.1" id="Layer_1" xmlns="http://www.w3.org/2000/svg" xmlns:xlink="http://www.w3.org/1999/xlink" viewBox="0 0 392.598 392.598" xml:space="preserve" fill="#000000">
<g id="SVGRepo_bgCarrier" stroke-width="0"/>
<g id="SVGRepo_tracerCarrier" stroke-linecap="round" stroke-linejoin="round"/>
<g id="SVGRepo_iconCarrier"> <g> <path style="fill:#FFFFFF;" d="M231.046,223.263c-4.59,0-8.727-2.844-10.279-7.176l-4.073-11.442l-22.174,49.39 c-3.814,8.016-17.067,9.374-20.558-2.004l-24.372-106.667l-32.905,66.457c-1.875,3.685-5.624,6.077-9.826,6.077H64.194 c44.347,68.267,110.545,129.939,132.073,149.269c21.01-18.747,84.299-77.834,128.582-143.903L231.046,223.263L231.046,223.263z"/> <path style="fill:#FFFFFF;" d="M51.006,196.176h49.131l43.442-87.984c5.624-9.826,17.713-6.788,20.428,2.392l23.984,104.792 l19.846-44.283c4.202-9.244,16.937-8.275,20.17,0.776l10.667,29.673h99.814c19.071-32.582,32.194-66.069,32.194-96.517 c0-45.834-37.236-83.071-83.071-83.071c-38.659,0-71.887,26.182-80.808,63.677c-2.133,10.279-17.39,12.024-21.269,0 c-8.857-37.495-42.085-63.677-80.743-63.677C34.586,22.923-11.507,96.556,51.006,196.176z"/> </g> <path style="fill:#000000;" d="M287.677,0.039c-38.788,0-73.244,20.881-91.41,53.269c-18.166-32.388-52.622-53.269-91.41-53.269 C47.063,0.039,0,47.101,0,104.895c0,123.152,181.527,278.562,189.22,285.091c4.461,3.168,9.18,3.685,14.158,0 c7.758-6.594,189.22-161.875,189.22-285.091C392.533,47.101,345.471,0.039,287.677,0.039z M196.267,367.166 c-21.527-19.329-87.725-81.002-132.073-149.204h42.731c4.202,0,7.952-2.327,9.826-6.077l32.905-66.586l24.372,106.667 c3.556,11.378,16.873,10.149,20.558,2.004l22.174-49.39l4.073,11.442c1.552,4.331,5.624,7.176,10.279,7.176h93.802 C280.566,289.332,217.277,348.354,196.267,367.166z M238.675,201.412l-10.667-29.673c-3.232-9.051-16.097-10.02-20.17-0.776 l-19.846,44.283l-23.984-104.792c-2.715-9.18-14.739-12.218-20.428-2.392l-43.442,87.984H51.006 C-11.507,96.491,34.651,22.859,104.857,21.824c38.659,0,71.887,26.182,80.743,63.677c3.814,12.024,19.071,10.279,21.269,0 c8.857-37.495,42.085-63.677,80.808-63.677c45.834,0,83.071,37.236,83.071,83.071c0,30.513-13.059,63.935-32.194,96.517 L238.675,201.412L238.675,201.412z"/> <g> <path style="fill:#ff0088;" d="M196.202,337.816c29.673-27.604,70.335-69.883,102.141-114.489h-67.297 c-4.59,0-8.727-2.844-10.279-7.176l-4.073-11.442l-22.174,49.39c-3.814,8.016-17.067,9.374-20.558-2.004l-24.372-106.667 l-32.905,66.392c-1.875,3.685-5.624,6.077-9.826,6.077H90.311C122.764,264.637,165.43,309.049,196.202,337.816z"/> <path style="fill:#ff0088;" d="M290.78,43.675c-29.802-1.487-55.919,18.23-62.772,46.804l-6.465,12.735 c-10.537,20.687-40.21,20.687-50.683,0l-6.465-12.735c-6.788-28.574-32.776-48.226-62.513-46.933 c-16.614,0.776-31.418,8.404-42.02,20.04h27.281c6.012,0,10.925,4.848,10.925,10.925c0,6.012-4.848,10.925-10.925,10.925H46.869 c-2.004,5.689-3.103,11.83-3.297,18.101h22.432c6.012,0,10.925,4.848,10.925,10.925c0,6.077-4.848,10.925-10.925,10.925H45.77 c4.461,22.303,15.58,46.545,30.384,70.723h24.048l43.442-87.984c5.624-9.826,17.713-6.788,20.428,2.392l23.984,104.792 l19.846-44.283c4.202-9.244,16.937-8.275,20.17,0.776l10.667,29.673h74.343c20.622-32.711,35.103-65.745,35.75-94.513 C349.543,74.059,323.685,45.42,290.78,43.675z"/> </g> </g>
</svg>